<?xml version="1.0" encoding="UTF-8"?><svg id="Capa_1" xmlns="http://www.w3.org/2000/svg" viewBox="0 0 427.65 432.27"><defs><style>.cls-1{fill:#fff;}.cls-2{fill:none;}</style></defs><path class="cls-2" d="M216.95,33.71c-97.75,0-176.98,79.24-176.98,176.98,0,57.24,34.49,104.99,34.49,104.99l-21.59,64.43,66.55-21.71s43.36,29.28,97.54,29.28c97.75,0,176.99-79.24,176.99-176.98S314.7,33.71,216.95,33.71Z"/><path class="cls-1" d="M216.95,0C100.59,0,6.26,94.33,6.26,210.7c0,57.75,30.58,109.37,30.58,109.37L0,432.27l115.45-36.89s42.86,26.02,101.51,26.02c116.37,0,210.7-94.33,210.7-210.7S333.32,0,216.95,0Zm0,387.68c-54.17,0-97.54-29.28-97.54-29.28l-66.55,21.71,21.59-64.43s-34.49-47.75-34.49-104.99c0-97.75,79.24-176.98,176.98-176.98s176.99,79.24,176.99,176.98-79.24,176.98-176.99,176.98Z"/><path class="cls-1" d="M136.72,118.97s5.69-3.61,8.66-3.61h16.6s4.45,.78,6.5,5.41c2.04,4.64,16.04,37.52,17.08,40.06s3.76,8.81-.6,14.43c-4.36,5.62-13.47,16.12-13.47,16.12,0,0-3.61,3.25-.48,8.42,3.13,5.17,14.12,22.23,28.51,35.12,14.38,12.89,32,22.37,40.78,25.26,8.78,2.89,10.71-.96,14.07-5.29,3.37-4.33,13.83-17.56,13.83-17.56,0,0,3.61-5.29,10.71-2.04,7.1,3.25,41.62,19.97,41.62,19.97,0,0,4.21,.72,4.45,5.41,.24,4.69,3.13,18.73-9.38,32.23-12.51,13.51-39.12,19.76-51.72,16.23-12.6-3.52-54.25-14.42-81.42-39.75s-49.17-52-58.17-71.67c-9-19.67-8.5-31.33-8-36.83s3.39-30.99,20.45-41.91Z"/></svg>