<?xml version="1.0" encoding="UTF-8"?><svg id="Camada_1" xmlns="http://www.w3.org/2000/svg" viewBox="0 0 262.67 83.1"><defs><style>.cls-1{fill:#4db104;}</style></defs><path class="cls-1" d="M109.86,83.1c-33.96,0-67.92,0-101.88-.01-2.19,0-4.39-.11-6.58-.27-.48-.03-1.18-.38-1.33-.75-.17-.43,.04-1.13,.29-1.6,1.31-2.5,3.02-4.7,5.27-6.43,2.07-1.59,4.42-2.59,6.91-3.46,3.75-1.3,7.57-1.12,11.37-1.22,6.36-.17,12.72-.08,19.08-.13,3.68-.03,7.35-.15,11.03-.15,60.24,.05,120.48,.11,180.71,.16,.56,0,1.11-.07,1.66-.13,1.12-.12,1.66,.45,1.46,1.57-.35,1.99-1.48,3.55-2.8,5-2.56,2.78-5.61,4.83-9.2,6.01-.75,.24-1.58,.22-2.34,.42-3.86,1.03-7.82,.95-11.75,.96-33.96,.03-67.92,.02-101.88,.02v.02Z"/><path class="cls-1" d="M91.7,37.43c0,5.6-.01,11.2,.01,16.8,0,.78-.16,1.48-.99,1.49-2.81,.05-5.74,.66-8.32-.95-2.2-1.37-3.98-3.19-4.05-5.97-.15-6.75-.12-13.51-.3-20.25-.08-3.14-.29-6.31-.81-9.41-.47-2.82-2.29-4.76-4.95-6.02-1.61-.76-3.22-.66-4.87-.86-2.77-.34-6.79,3.35-7.5,5.53-.76,2.35-1.12,4.71-1.09,7.18,.07,7,.02,14,.02,21,0,2.63,.03,5.26,0,7.9-.01,1.67-.32,1.96-1.97,1.96-1,0-2,0-3-.02-3.1-.06-5.24-1.66-6.97-4.13-1.27-1.82-1.49-3.82-1.5-5.9-.03-6.44,.06-12.88-.04-19.32-.03-2.34-.3-4.7-.73-7-.46-2.49-1.86-4.6-4.09-5.77-1.5-.78-3.3-1.12-5.01-1.31-1.76-.2-3.4,.56-4.87,1.51-3.23,2.08-4.03,5.35-4.07,8.88-.11,10.47-.16,20.95-.23,31.42-.01,1.4-.39,1.8-1.77,1.79-2.26-.02-4.51,.13-6.65-1.05-3.24-1.79-5.01-4.54-5.08-8.11-.15-8.2-.16-16.4,.03-24.6,.1-4.66,1.09-9.2,4.02-13.04,.95-1.24,2.13-2.31,3.22-3.44,2.05-2.11,4.57-3.49,7.33-4.36,1.72-.54,3.57-.77,5.38-.94,2.26-.2,4.56-.36,6.81-.21,1.63,.11,3.26,.65,4.83,1.17,3.06,1.02,5.43,3.11,7.74,5.25,.84,.78,1.5,.8,2.37,.04,1.61-1.42,3.27-2.79,4.99-4.07,.88-.65,1.89-1.25,2.94-1.53,3.56-.97,7.19-1.42,10.86-.58,1.86,.42,3.82,.58,5.56,1.3,3.94,1.62,7.21,4.12,9.4,7.92,2.51,4.36,3.49,9.02,3.37,14.01-.11,4.56-.02,9.12-.02,13.68h-.01Z"/><path class="cls-1" d="M218.31,1.42c.4,0,.8,.03,1.2,0,4.87-.46,8.49,2.72,9.3,7.67,.48,2.94,1.49,5.79,2.04,8.72,.87,4.62,2.69,8.92,4.32,13.29,.79,2.13,1.78,4.18,2.74,6.24,.16,.34,.64,.79,.92,.76,.38-.05,.86-.45,1.02-.81,1.22-2.71,2.44-5.43,3.53-8.2,1.11-2.82,2.21-5.66,3.06-8.57,1.05-3.63,1.84-7.33,2.73-11,.55-2.29,1.03-4.59,1.59-6.87,.25-1.04,.98-1.48,2.06-1.4,2.07,.15,4.16,.12,6.2,.43,2.21,.33,3.49,1.85,3.6,4.1,.12,2.43,.14,4.83-.69,7.22-.75,2.16-1.07,4.47-1.7,6.68-.48,1.68-1.16,3.31-1.75,4.96-.68,1.89-1.31,3.82-2.08,5.67-1,2.38-2.12,4.72-3.2,7.06-.45,.97-.95,1.92-1.42,2.88-1.46,2.99-2.82,6.04-4.41,8.97-1.14,2.1-2.49,4.09-3.92,6-.46,.61-1.47,1.07-2.25,1.11-1.5,.07-3.05-.03-4.51-.37-2.4-.56-3.95-2.38-5.2-4.33-3.06-4.81-5.81-9.8-7.88-15.14-1.67-4.29-3.47-8.54-4.96-12.89-1.46-4.25-2.71-8.58-3.83-12.93-.62-2.42-.86-4.94-1.17-7.43-.18-1.4,.25-1.76,1.7-1.77,.52,0,1.04-.02,1.56-.02,.48,0,.96,0,1.44,0Z"/><path class="cls-1" d="M209.77,28.18c.27-6.32-1.71-12.72-4.56-16.92-.78-1.15-1.8-2.14-2.56-3.3-1.93-2.95-4.95-4.46-7.95-5.86-1.98-.92-4.24-1.34-6.43-1.68-6.36-1.01-12.45-.23-18.13,3.04-3.16,1.82-5.8,4.23-7.86,7.2-2.56,3.68-4.11,7.83-4.72,12.26-.74,5.45-.93,10.87,.88,16.22,1.6,4.73,3.84,8.95,7.86,12.12,3.94,3.11,5,3.84,9.76,5.06,5.78,1.47,11.55,1.29,17.13-.85,3.79-1.45,7.02-3.79,9.76-6.89,2.89-3.26,4.68-7.05,5.72-11.16,.76-2.99,.95-6.12,1.4-9.19l-.31-.05Zm-14.97,7.81c-.79,2.77-1.99,5.48-4.69,6.95-1.47,.8-3.14,1.46-4.79,1.67-4.43,.58-8.4-.51-11.06-4.4-1.37-2-2.44-4.23-2.67-6.71-.37-3.9-.66-7.81,.31-11.67,.76-3.04,1.97-5.87,4.78-7.55,1.4-.84,2.99-1.54,4.59-1.85,2.42-.48,4.88-.09,7.09,1.01,2.19,1.09,4.01,2.62,5.14,4.94,1.76,3.61,1.93,7.45,2.18,11.36-.27,2.09-.3,4.24-.87,6.25Z"/><path class="cls-1" d="M150,21.3c-.38-2.21-1.03-4.43-1.93-6.48-1.25-2.86-3.08-5.36-5.28-7.64-2.06-2.15-4.44-3.78-7.1-4.94-3.52-1.53-7.26-2.14-11.13-2.15-2.69,.32-5.49,.28-8.04,1.05-4.72,1.43-8.69,4.16-11.92,8.01-3.01,3.6-4.74,7.81-5.66,12.24-1.01,4.86-1.03,9.9-.14,14.79,.69,3.82,2.26,7.39,4.54,10.66,2.29,3.28,5.31,5.67,8.74,7.47,4.86,2.56,10.18,3.15,15.6,2.46,5.27-.67,10.07-2.36,13.98-6.22,2.61-2.58,4.79-5.32,6.3-8.73,1.85-4.16,2.5-8.48,2.58-12.91,.05-2.54-.13-5.11-.55-7.61Zm-13.51,7.65c-.1,2.04,.06,4.12-.36,6.09-.53,2.55-1.95,4.73-3.64,6.77-2.33,2.8-5.46,2.85-8.63,2.83-.99,0-1.98-.23-2.95-.45-3.62-.82-5.57-3.43-7.05-6.58-1.2-2.56-1.5-5.28-1.49-8.05,0-2.27-.12-4.59,.29-6.8,.53-2.81,1.42-5.63,3.77-7.54,1.95-1.58,4.07-2.82,6.75-2.92,2.35-.08,4.63,.31,6.61,1.36,1.51,.79,2.84,2.22,3.83,3.66,2.38,3.48,3.24,7.42,2.86,11.64Z"/></svg>