<svg id="Camada_1" data-name="Camada 1" xmlns="http://www.w3.org/2000/svg" viewBox="0 0 176.76 104.11"><defs><style>.cls-1{fill:#353334;}.cls-2{fill:#e63238;}</style></defs><path class="cls-1" d="M122.62,104.11l-.54-.45v-.77a2.6,2.6,0,0,1,.28,0,12.17,12.17,0,0,0,1.56.28,1.49,1.49,0,0,0,.76-.27.4.4,0,0,0,.08-.41.75.75,0,0,0-.41-.33,4.86,4.86,0,0,0-.9-.08v-1.27l-1.5-.27a3.51,3.51,0,0,1-1.14-.5c-.07-.27-.33-.21-.46-.34a7.84,7.84,0,0,1-1.07-1.52,5.76,5.76,0,0,1-.64-2.59,9.92,9.92,0,0,1,.15-2.66,4.89,4.89,0,0,1,.93-2.25,4.6,4.6,0,0,1,2.91-1.62,6.31,6.31,0,0,1,3.6.23,3.84,3.84,0,0,1,2.5,3.29c0,.25-.09.35-.32.36h-1.6c-.32,0-.33-.26-.42-.46A2.38,2.38,0,0,0,124.71,91a2.94,2.94,0,0,0-2.83.76,2.91,2.91,0,0,0-.85,1.79,9.49,9.49,0,0,0,0,2.44,4.17,4.17,0,0,0,.66,1.66,2.71,2.71,0,0,0,4.59-.53,3.44,3.44,0,0,1,.31-.55h1.81c.23,0,.36.1.33.35a4.07,4.07,0,0,1-1.7,2.93,4.86,4.86,0,0,1-2.48.85c-.06,0-.13,0-.17,0a.69.69,0,0,0-.2.22s.11.15.18.18a1,1,0,0,0,.34,0,1.6,1.6,0,0,1,1.08.49,1.47,1.47,0,0,1,.06,1.72l-.61.72Z"/><path class="cls-2" d="M175.93,23.55l-.5,0c-3.8,0-7.59,0-11.38,0-4.11,0-8.23-.1-12.34-.14l-13.94-.1L123,23.18q-10-.06-20-.06a29.2,29.2,0,0,0-3.24.2,19.31,19.31,0,0,0-4.32,1,16.9,16.9,0,0,0-7.19,4.65,15.66,15.66,0,0,0-2.92,4.8,18.67,18.67,0,0,0-1.19,6.7c0,1.77,0,3.54,0,5.31A20.75,20.75,0,0,0,85,50.81a15.78,15.78,0,0,0,2.36,4.84,14.52,14.52,0,0,0,2.6,2.71,19,19,0,0,0,3.75,2.38,1.28,1.28,0,0,1,.23.14c-.16.53-.3,1.06-.48,1.57a.53.53,0,0,1-.36.21,2.61,2.61,0,0,1-.56,0h-8a3.27,3.27,0,0,0-.44,0,.68.68,0,0,0,0,.25c0,3.07,0,6.13,0,9.2a12.78,12.78,0,0,0,.3,2.2,15.28,15.28,0,0,0,2,5.08c.37.6.79,1.16,1.21,1.73a.77.77,0,0,1,.11.89c-.42.89-.82,1.79-1.22,2.7-.12.26-.33.28-.57.28H66c-1.35,0-1,.16-1.35-1.08-.18-.62-.35-1.24-.54-1.86-.4-1.31-.81-2.61-1.2-3.92s-.76-2.67-1.15-4c-.25-.82-.52-1.63-.76-2.44-.3-1-.57-1.93-.86-2.9-.38-1.25-.78-2.5-1.14-3.76s-.71-2.6-1.09-3.9c-.56-1.91-1.17-3.81-1.74-5.72-.38-1.26-.72-2.52-1.09-3.78-.18-.61-.4-1.21-.64-1.93a7.1,7.1,0,0,0-.55,1.53c-.21.51-.34,1-.5,1.57s-.32,1-.47,1.53-.31,1-.47,1.53l-.49,1.51c-.17.53-.35,1-.52,1.57s-.3,1-.46,1.53-.33,1-.49,1.52-.31,1-.48,1.52-.33,1-.5,1.58-.31,1-.46,1.52l-.48,1.53c-.16.5-.33,1-.5,1.51s-.32,1-.49,1.58-.31,1-.46,1.53-.33,1-.49,1.52l-.48,1.52c-.16.53-.33,1.05-.5,1.58s-.33,1-.48,1.52-.29,1-.46,1.6a3.55,3.55,0,0,1-.5-1.23c-.26-.83-.5-1.67-.74-2.51-.42-1.44-.83-2.88-1.26-4.32s-.83-2.72-1.24-4.09-.73-2.47-1.1-3.71c-.25-.84-.52-1.67-.77-2.51-.55-1.86-1.09-3.72-1.64-5.58-.42-1.38-.85-2.76-1.27-4.14-.65-2.13-1.29-4.26-1.94-6.38a1.69,1.69,0,0,1,.07-1.21c1.1-2.47,2.16-4.95,3.24-7.43.72-1.65,1.47-3.3,2.19-4.95,1-2.36,2-4.72,3-7.07.83-1.9,1.67-3.79,2.49-5.69.62-1.42,1.21-2.84,1.83-4.25s1.31-2.94,2-4.42c.44-1,.86-2,1.3-3.05.35-.82.72-1.63,1.07-2.45C52,4.2,52.58,2.84,53.16,1.49c.21-.47.43-.92.71-1.49.93,1.84,1.63,3.66,2.47,5.42S58,9,58.81,10.86s1.61,3.61,2.42,5.41l2.43,5.41,2.46,5.46q1.22,2.7,2.44,5.4T71,37.94l2.47,5.46c.81,1.79,1.61,3.59,2.47,5.51a6.64,6.64,0,0,0,.26-.65c.16-.63.3-1.26.45-1.89.41-1.64.83-3.28,1.23-4.92.25-1.05.46-2.11.71-3.17.21-.89.45-1.77.66-2.65.37-1.57.73-3.15,1.1-4.72.23-1,.49-1.91.72-2.87.45-1.9.89-3.81,1.35-5.71.37-1.55.77-3.1,1.14-4.65s.7-3,1.06-4.55c.26-1.09.55-2.18.81-3.27.21-.87.4-1.74.6-2.61.07-.29.16-.58.24-.88.15-.65.32-1.29.45-1.94A.43.43,0,0,1,87.24,4c.4,0,.8,0,1.2,0h60.12c.8,0,1.61,0,2.4,0a1.37,1.37,0,0,1,.95.32c1.2,1,2.42,2,3.63,2.93l4.21,3.32,6.37,5,5.61,4.48L175,22.64l1,.8Z"/><path class="cls-1" d="M124.28,69.83h.6c2.65,0,5.3,0,8,.07a4.85,4.85,0,0,0,3.78-1.56,3.44,3.44,0,0,0,1-2.54,4.13,4.13,0,0,0-.58-2.17,2.79,2.79,0,0,0-1.86-1.18,14.35,14.35,0,0,0-2-.26c-1.95-.14-3.91-.25-5.87-.37l-7.42-.45-9.69-.6c-1.6-.1-3.2-.17-4.79-.28a36.14,36.14,0,0,1-4.86-.65,25,25,0,0,1-4.68-1.4A13.65,13.65,0,0,1,89,52.66a13.31,13.31,0,0,1-1.63-5.07,54.51,54.51,0,0,1-.16-8,13.25,13.25,0,0,1,2.41-7.5,13.08,13.08,0,0,1,5.56-4.42c.54-.24,1.11-.42,1.66-.62A.76.76,0,0,1,97,27c.79-.13,1.54-.44,2.34-.55s1.58-.2,2.38-.25,1.64-.08,2.45-.08h17c.54,0,.57,0,.57.58l.06,12.85c0,.28,0,.57,0,.86s0,.49-.49.48l-3,0-4.8,0a5.23,5.23,0,0,0-2.57.55,4.44,4.44,0,0,0-1.57,1.24,3.77,3.77,0,0,0-.63,3.77,2.14,2.14,0,0,0,1.25,1.25,8.15,8.15,0,0,0,2.49.48c2.28.17,4.56.31,6.84.47s4.52.32,6.78.5l7.8.65c2.24.18,4.48.33,6.72.53,1,.1,2,.27,3,.41a27.71,27.71,0,0,1,4.41,1,22.1,22.1,0,0,1,3.39,1.38,15.65,15.65,0,0,1,2.59,1.62,13.71,13.71,0,0,1,2,2.06,9.14,9.14,0,0,1,1.24,1.88,14.8,14.8,0,0,1,1.25,3.68,21.25,21.25,0,0,1,.26,4c0,1.75,0,3.51,0,5.25a13.17,13.17,0,0,1-1.69,6,13.53,13.53,0,0,1-3.06,3.63,12,12,0,0,1-2.31,1.5,14.5,14.5,0,0,1-3.15,1.2,19,19,0,0,1-5.32.74H124.89c-.55,0-.56,0-.56-.52q0-6.82,0-13.66Z"/><path class="cls-1" d="M43.47,84.74H21.84c-.45-.45-.4-1.09-.58-1.64-.39-1.14-.71-2.3-1.06-3.45-.19-.59-.39-1.18-.57-1.77a4.23,4.23,0,0,1-.36-1.26,1.88,1.88,0,0,0-.19-.53c-.08-.25-.15-.52-.22-.78s-.16-.61-.26-.91-.33-.86-.48-1.29c-.07-.23-.08-.48-.14-.71-.38-1.26-.76-2.51-1.15-3.76a8.73,8.73,0,0,1-.53-1.59c-.07-.74-.53-1.35-.58-2.09a4.83,4.83,0,0,0-.46-1.56c-.4-.92-.57-1.91-.9-2.85s-.48-1.81-.8-2.69c-.61-1.69-1-3.46-1.6-5.13-.4-1-.57-2.11-.92-3.15-.13-.41-.3-.81-.43-1.22s-.24-.86-.36-1.29c-.31-1-.57-2.11-.94-3.14-.24-.68-.46-1.36-.66-2-.14-.5-.34-1-.49-1.47-.09-.3-.13-.62-.22-.92-.26-.87-.57-1.72-.78-2.61-.08-.36-.28-.68-.38-1-.43-1.49-.83-3-1.27-4.48-.23-.77-.56-1.52-.81-2.29-.15-.46-.23-.94-.37-1.4-.2-.68-.45-1.36-.66-2-.32-1.1-.61-2.2-.94-3.29-.28-.92-.61-1.83-.9-2.75-.16-.5-.26-1-.4-1.54-.09-.3-.21-.58-.3-.88S.89,16.36.78,16a2,2,0,0,0-.11-.44C.3,15,.44,14.24,0,13.62a2.19,2.19,0,0,1,.39,0c1,.52,2.09,1,3.14,1.55,2.33,1.13,4.67,2.24,7,3.35a8.13,8.13,0,0,0,1.87,1,15.61,15.61,0,0,0,1.81.82c.36.15.62.45,1,.54a5.23,5.23,0,0,1,1,.53c.56.27,1.14.5,1.7.77.84.41,1.67.86,2.51,1.26.44.22.92.37,1.36.59a5,5,0,0,0,1.56.73c.29.38.87.26,1.17.68.11.14.4.17.61.22a1.23,1.23,0,0,1,.82,1c.67,2.27,1.36,4.53,2.05,6.79.45,1.48.85,3,1.3,4.45.51,1.7,1,3.38,1.57,5.08.36,1.19.69,2.39,1,3.58S32.67,48.85,33,50c.43,1.4.85,2.8,1.27,4.2.56,1.85,1.13,3.71,1.68,5.56.68,2.26,1.33,4.52,2,6.78.59,2,1.2,4,1.79,5.94.24.78.44,1.57.67,2.35.29,1,.62,2,.91,3,.18.58.31,1.18.48,1.76.45,1.47.9,2.94,1.36,4.4C43.26,84.2,43.35,84.42,43.47,84.74Z"/><path class="cls-1" d="M107.77,65.85a13.38,13.38,0,0,0,.62,1.43,4.66,4.66,0,0,0,4.22,2.55c2.84,0,5.68,0,8.52,0h.49c.14.48.18,13.78,0,14.69a4.52,4.52,0,0,1-.53.06q-9.12,0-18.23,0a20.7,20.7,0,0,1-5.86-.83,14,14,0,0,1-6.57-4,12.42,12.42,0,0,1-2.81-5.1,15,15,0,0,1-.54-4.06c0-1.48,0-3,0-4.45a2,2,0,0,1,0-.27.23.23,0,0,0,0,0s0,0,0,0a.85.85,0,0,1,.22,0l20.23,0S107.76,65.85,107.77,65.85Z"/><path class="cls-1" d="M158.72,44.72c-.22,0-.43,0-.63,0H138.66a1.12,1.12,0,0,1-.45,0,.5.5,0,0,1-.27-.3,4.54,4.54,0,0,0-1.68-2.57,5.08,5.08,0,0,0-2.21-1.05,6.53,6.53,0,0,0-1.08-.07h-8.78c0-.21,0-.38,0-.54q0-6.81,0-13.6c0-.59,0-.6.6-.6h18.18A18.92,18.92,0,0,1,149.36,27a4.66,4.66,0,0,1,1.44.61c.19.14.51.1.73.22a14.21,14.21,0,0,1,2,1.22A9.13,9.13,0,0,1,155,30.31c.42.51.86,1,1.24,1.52a12.87,12.87,0,0,1,1,1.65,13.86,13.86,0,0,1,1.53,6.41c0,1.52,0,3,0,4.57A1.74,1.74,0,0,1,158.72,44.72Z"/><path class="cls-1" d="M160.67,6.65h16l.05,0,0,0a.85.85,0,0,1,0,.22c0,4.43,0,8.87,0,13.3,0,0,0,.07-.08.18-1.8-1.52-3.59-3-5.37-4.55L166,11.33c-1.79-1.53-3.59-3-5.38-4.56Z"/><path class="cls-1" d="M92.72,100.49c-.83,0-1.56,0-2.3-.06V89.33a1,1,0,0,1,.32-.1c.59,0,1.18,0,1.77,0a.52.52,0,0,1,.49.32c.56,1,1.14,1.95,1.71,2.92.78,1.34,1.55,2.67,2.34,4a1.63,1.63,0,0,0,.3.3V89.27h2.18c.11.37.16,9.44.06,11.14a1.46,1.46,0,0,1-.3.07c-.55,0-1.11,0-1.66,0a.75.75,0,0,1-.5-.19,12.84,12.84,0,0,1-.7-1.14c-.31-.54-.61-1.09-.93-1.63-.52-.87-1-1.74-1.57-2.61-.12-.21-.25-.4-.37-.61s-.39-.68-.57-1a.74.74,0,0,0-.27-.3Z"/><path class="cls-1" d="M134.65,100.79a19.54,19.54,0,0,1-2-.27,2.87,2.87,0,0,1-1.07-.58,5.46,5.46,0,0,1-2.09-3.14,8.84,8.84,0,0,1-.09-3,6.39,6.39,0,0,1,.41-1.88,4.77,4.77,0,0,1,3.21-2.8,6.09,6.09,0,0,1,4,.17,5,5,0,0,1,3,3.55,7.47,7.47,0,0,1-.27,4.76,5,5,0,0,1-2.07,2.42A6.11,6.11,0,0,1,134.65,100.79ZM138,95a5.66,5.66,0,0,0-.29-2.16,2.8,2.8,0,0,0-1.85-1.8,2.93,2.93,0,0,0-3.73,1.75,5.82,5.82,0,0,0,0,4,2.76,2.76,0,0,0,2.65,2,2.83,2.83,0,0,0,2.88-1.73A4.46,4.46,0,0,0,138,95Z"/><path class="cls-1" d="M60.8,100.48H58.61a.41.41,0,0,1-.46-.4c0-.43-.1-.86-.13-1.3s0-1-.1-1.54a1.13,1.13,0,0,0-.75-.93,2.79,2.79,0,0,0-1.23-.22H54a6.94,6.94,0,0,0-.06,1.43c0,.48,0,1,0,1.43v1.41a5.43,5.43,0,0,1-2.27,0V89.31a1.28,1.28,0,0,1,.29-.08l5.77,0a2.94,2.94,0,0,1,2.39,1.2,3.15,3.15,0,0,1,.53,1.94,2.73,2.73,0,0,1-.76,2.12,6,6,0,0,1-.79.59,2.27,2.27,0,0,1,1.27,2.33l0,1.25a2.09,2.09,0,0,0,.4,1.45C60.81,100.19,60.78,100.31,60.8,100.48ZM54,91.21a12,12,0,0,0,0,2.87c1,0,2.08,0,3.12,0a1.22,1.22,0,0,0,1.19-1.17,1.35,1.35,0,0,0-1.14-1.68C56.11,91.16,55.05,91.21,54,91.21Z"/><path class="cls-1" d="M29.72,95.06a7.22,7.22,0,0,1,.8.74,2.41,2.41,0,0,1,.39,1.41c.05.53.06,1.07.07,1.6a1.72,1.72,0,0,0,.41,1.32.17.17,0,0,1,0,.1.44.44,0,0,1,0,.18,3.25,3.25,0,0,1-.45.07c-.56,0-1.11,0-1.66,0-.31,0-.47-.1-.52-.39s-.1-.6-.12-.9c0-.59,0-1.18-.08-1.77a1.32,1.32,0,0,0-1.41-1.31c-.15,0-.3,0-.46,0H24.62a4.49,4.49,0,0,0-.07,1.41c0,.48,0,1,0,1.43v1.41a6.13,6.13,0,0,1-2.3.07V89.24h.89c1.75,0,3.5,0,5.26,0a3.62,3.62,0,0,1,1.15.26,2.72,2.72,0,0,1,1.7,2.77,2.8,2.8,0,0,1-.86,2.28C30.18,94.76,30,94.9,29.72,95.06Zm-5.2-3.86c0,.91,0,1.76,0,2.61,0,.24.14.33.36.33h1.2c.61,0,1.21,0,1.82-.08a1.08,1.08,0,0,0,1-1.07,4,4,0,0,0,0-.69,1.15,1.15,0,0,0-1.07-1.07C26.74,91.18,25.68,91.2,24.52,91.2Z"/><path class="cls-1" d="M150.32,97h1.88a.39.39,0,0,1,.45.33,1.94,1.94,0,0,0,1.93,1.48,3.6,3.6,0,0,0,1.69-.15,1.23,1.23,0,0,0,.81-.89.92.92,0,0,0-.31-1,3.84,3.84,0,0,0-1.53-.75c-.89-.25-1.8-.47-2.69-.75a2.64,2.64,0,0,1-2.06-2.62,3,3,0,0,1,1.86-3.28,6,6,0,0,1,3.14-.4,5.06,5.06,0,0,1,1.94.61A3.2,3.2,0,0,1,159,92.13c0,.25-.1.34-.34.34-.49,0-1,0-1.48,0a.36.36,0,0,1-.43-.34,1.57,1.57,0,0,0-1.17-1.21,2.88,2.88,0,0,0-1.9,0,1.82,1.82,0,0,0-.59.34,1,1,0,0,0,.25,1.74,8,8,0,0,0,1.66.58,14.86,14.86,0,0,1,2.82.88,2.67,2.67,0,0,1,1.59,2.5A3.85,3.85,0,0,1,159,98.8a3.41,3.41,0,0,1-2.55,1.83,6.92,6.92,0,0,1-3.61-.13,3.55,3.55,0,0,1-2.46-2.69A6.2,6.2,0,0,1,150.32,97Z"/><path class="cls-1" d="M79.47,92.43a12,12,0,0,1-1.9,0,.42.42,0,0,1-.27-.25,2.24,2.24,0,0,0-2.75-1.36,1.7,1.7,0,0,0-1,.57A1,1,0,0,0,73.81,93a5.71,5.71,0,0,0,1.68.6,8.62,8.62,0,0,1,3.3,1.12,2.38,2.38,0,0,1,1.09,1.83,3.48,3.48,0,0,1-3.06,4.11,8.9,8.9,0,0,1-3.56-.15,3.32,3.32,0,0,1-1.49-1,3.27,3.27,0,0,1-.88-2.47.84.84,0,0,1,.23-.07h1.95a2.43,2.43,0,0,1,.1.28,1.83,1.83,0,0,0,1.77,1.5,5.42,5.42,0,0,0,1.14,0,1.8,1.8,0,0,0,1.55-1,1,1,0,0,0-.5-1.2,9.86,9.86,0,0,0-1.9-.78,13.67,13.67,0,0,1-1.55-.3,3.2,3.2,0,0,1-2.29-1.46,4.25,4.25,0,0,1-.31-2.54,2.84,2.84,0,0,1,2.5-2.41,6.32,6.32,0,0,1,3.75.16,3.29,3.29,0,0,1,2.21,2.95C79.55,92.26,79.51,92.32,79.47,92.43Z"/><path class="cls-1" d="M143.7,91.19v2.35a14.39,14.39,0,0,0,1.74,0c.59,0,1.18,0,1.77,0H149v1.86a10.87,10.87,0,0,1-1.72.06c-.59,0-1.18,0-1.77,0h-1.81v2.86a18.92,18.92,0,0,0,2,0c.68,0,1.37,0,2.05,0h2v2a10.49,10.49,0,0,1-1.59,0H143.1l-1.67,0V89.3a2.92,2.92,0,0,1,.39-.07h7.25c.45,0,.47,0,.47.49v1.43a18.05,18.05,0,0,1-1.94,0c-.63,0-1.26,0-1.89,0Z"/><path class="cls-1" d="M41,98.39v2a2.5,2.5,0,0,1-.41.07H33a4.07,4.07,0,0,1-.41-.06v-11l0-.06,0,0a2.15,2.15,0,0,1,.34,0h7.64a16.88,16.88,0,0,1,.07,1.9c-.23,0-.43.06-.63.06H34.86v2.36c1.76.08,3.52,0,5.31,0v1.86c-.9.07-1.79,0-2.68,0s-1.74,0-2.64,0v2.86a11.05,11.05,0,0,0,1.52,0c.5,0,1,0,1.49,0H41Z"/><path class="cls-1" d="M64.24,95.49v2.84c.22,0,.44.06.66.06H70a2.85,2.85,0,0,1,.29,0,1.72,1.72,0,0,1,.08.28v1.74H62V89.25h8v1.93H64.26V93.5a7.13,7.13,0,0,0,1.73.08c.59,0,1.18,0,1.77,0h1.8v1.91Z"/><path class="cls-1" d="M81,100.45V89.25h8v1.94H83.29v2.33c.21,0,.42.06.64.06h4.29l.38,0v1.88c-1.77.06-3.53,0-5.32,0v2.79a4.87,4.87,0,0,0,1.47.08c.51,0,1,0,1.54,0h3c.11.68,0,1.35.07,2.06Z"/><path class="cls-1" d="M118.69,100.48H116.6a.46.46,0,0,1-.5-.36c-.22-.65-.47-1.28-.72-1.95h-1.79c-.67,0-1.34,0-2,0a.48.48,0,0,0-.57.4c-.18.64-.41,1.26-.62,1.89h-2.32c-.14-.33.06-.56.16-.81a3.47,3.47,0,0,0,.36-1.1c0-.24.23-.46.32-.7.27-.8.52-1.61.8-2.42.46-1.34.93-2.68,1.4-4,.18-.52.37-1,.55-1.55s.3-.62.84-.62h1.6c.5,0,.52,0,.69.49.38,1.08.76,2.17,1.15,3.25l1.35,3.74,1.11,3.17C118.47,100,118.55,100.18,118.69,100.48Zm-5.34-8.83h-.1l-1.47,4.57h3.06Z"/><path class="cls-1" d="M44.29,96.5v3.87a6.67,6.67,0,0,1-2.29,0V89.24h.83c1.59,0,3.19,0,4.79,0A2.72,2.72,0,0,1,50.12,91a4.21,4.21,0,0,1,.27,2.87,3,3,0,0,1-3.08,2.55c-.83,0-1.67,0-2.51,0Zm.05-2A15,15,0,0,0,47,94.39,1.31,1.31,0,0,0,48.22,93a3.56,3.56,0,0,0,0-.57,1.31,1.31,0,0,0-1.36-1.2c-.7,0-1.4,0-2.1,0a2.32,2.32,0,0,0-.38,0Z"/><path class="cls-1" d="M105.81,100.49c-.81,0-1.54,0-2.3,0V91.28a2.5,2.5,0,0,0-.44-.07h-2.29c-.18,0-.36,0-.57,0v-1.9h8.85v1.9a11.53,11.53,0,0,1-1.56,0c-.53,0-1.06,0-1.68,0C105.81,94.29,105.83,97.34,105.81,100.49Z"/><path class="cls-1" d="M137.19,85.82a1.6,1.6,0,0,1-2.17,1.7c-.25-.08-.51-.14-.77-.2a.72.72,0,0,0-.87.35c-.21.35-.56.19-.86.14a1.58,1.58,0,0,1,2-1.67,8.65,8.65,0,0,0,.87.25.75.75,0,0,0,.94-.33C136.56,85.68,136.64,85.68,137.19,85.82Z"/></svg>