<?xml version="1.0" encoding="UTF-8"?><svg id="Camada_1" xmlns="http://www.w3.org/2000/svg" viewBox="0 0 369.36 72.99"><defs><style>.cls-1{fill:#fec916;}</style></defs><path class="cls-1" d="M236.73,35.28c0-.44,0-.89,0-1.33,0-10.43,0-20.85,0-31.28,0-1.31,.11-1.42,1.43-1.42,4.43,0,8.85,0,13.28,0,1.25,0,1.52,.25,1.52,1.53,0,22.55,0,45.11,0,67.66,0,1.05-.21,1.21-1.27,1.11-.25-.02-.52-.06-.77,0-2.34,.52-4.12-.43-5.63-2.11-3.54-3.94-7.07-7.88-10.62-11.8-6.17-6.82-12.36-13.63-18.78-20.43v1.06c0,10.33,0,20.66,0,30.99,0,2.09,0,2.08-2.04,2.07-4.36,0-8.73,0-13.09,0-1.22,0-1.32-.09-1.32-1.32,0-22.52,0-45.05,0-67.57,0-1.36,.07-1.41,1.39-1.43,.54,0,1.1,0,1.63-.09,1.81-.34,3.2,.25,4.43,1.63,9.42,10.5,18.89,20.97,28.34,31.45,.42,.47,.85,.93,1.28,1.39l.22-.11Z"/><path class="cls-1" d="M101.37,36.35c0-11.13,0-22.26,0-33.4,0-1.61,.12-1.71,1.76-1.71,4.26,.01,8.53,0,12.79,0,1.56,0,1.71,.11,1.71,1.68-.02,7.41-.04,14.82-.06,22.23,0,1.46,.06,1.52,1.52,1.52,5.52,0,11.03,.02,16.55,.03,1,0,1.18-.2,1.18-1.38-.01-7.51-.03-15.01-.05-22.52,0-1.49,.06-1.55,1.58-1.55,4.36,0,8.72,0,13.08-.01,1.33,0,1.52,.16,1.52,1.47,0,22.39,0,44.79,0,67.18,0,1.3-.16,1.45-1.42,1.45-4.49,0-8.98,0-13.47,0-1.24,0-1.29-.04-1.28-1.31,.02-9.85,.03-19.7,.05-29.55,0-1.68-.05-1.72-1.73-1.72-5.36,0-10.71,0-16.07,0-1.28,0-1.45,.16-1.45,1.42,0,9.98-.01,19.95,.02,29.93,0,.95-.22,1.26-1.22,1.25-4.27-.06-8.53-.02-12.8-.03-2.28,0-2.2,.3-2.2-2.16,0-10.94,0-21.88,0-32.82Z"/><path class="cls-1" d="M359.56,22.74c-2.18,0-4.36,.02-6.55-.02-.27,0-.73-.28-.79-.51-1.06-4.05-2.9-5.69-7.12-6.15-2.57-.28-4.97,.23-7.16,1.65-2.54,1.66-3.61,4.67-2.6,7.38,.69,1.85,2.14,2.93,3.93,3.39,2.31,.61,4.68,1.03,7.05,1.38,4.09,.61,8.18,1.18,12.05,2.72,5.97,2.38,9.35,6.84,10.43,13.12,.19,1.12,.5,2.25,.53,3.38,.34,11.3-6.48,20.16-17.92,22.92-8.12,1.96-15.77,1.08-22.9-3.43-5.99-3.8-9.07-9.3-9.61-16.33-.2-2.64-.02-2.28,2.18-2.29,3.88-.01,7.77,.02,11.65-.02,.91,0,1.41,.22,1.55,1.21,.25,1.7,1.28,2.93,2.76,3.73,4.41,2.41,8.9,2.59,13.46,.42,1.92-.92,3.07-2.37,3.1-4.57,.03-2.26-1.03-3.85-3.03-4.83-2.32-1.14-4.85-1.37-7.38-1.58-3.74-.31-7.45-.84-11.01-2.12-7.22-2.6-11.12-7.82-12.08-15.33-.47-3.68-.54-7.36,.51-10.97,1.99-6.85,6.33-11.58,13.03-14,8.69-3.14,17.01-2.5,24.76,2.79,4.94,3.38,7.72,8.11,8.48,14.03,.13,1.01,.14,2.04,.24,3.06,.06,.71-.23,.97-.94,.97-2.21-.03-4.43,0-6.64,0Z"/><path class="cls-1" d="M156.63,36.19c0-11.13,0-22.27,0-33.4q0-1.64,1.66-1.64c11.81,0,23.62,0,35.42,0,1.53,0,1.62,.09,1.62,1.65,0,4.27,0,8.53,0,12.8,0,1.4-.16,1.57-1.53,1.56-6.64-.02-13.28-.04-19.93-.06-1.46,0-1.57,.1-1.57,1.58,0,2.41,.02,4.81-.02,7.22-.02,.88,.32,1.2,1.17,1.2,6.1-.02,12.19-.02,18.29-.04,1.72,0,1.77,.04,1.76,1.75-.02,4.27,0,8.53,0,12.8,0,1.31-.05,1.36-1.35,1.36-6.13,0-12.26,0-18.39,0-1.31,0-1.37,.06-1.37,1.35,0,3.21,0,6.42,0,9.63,0,1.36,.07,1.43,1.49,1.43,6.87,.01,13.73,.02,20.6,.03,1.67,0,1.67,0,1.67,1.65,0,4.27,0,8.53,0,12.8,0,1.3-.05,1.37-1.34,1.37-12.26,0-24.51,0-36.77,0-1.3,0-1.41-.11-1.41-1.45,0-11.2,0-22.4,0-33.59Z"/><path class="cls-1" d="M62.98,71.34c-.35,0-.7,0-1.04,0-4.33,0-8.66-.03-12.99,.02-.96,.01-1.4-.31-1.74-1.21-5.02-13.35-10.07-26.68-15.12-40.01-.1-.26-.21-.51-.41-1.01-.64,1.69-1.2,3.16-1.75,4.64-4.48,12.01-8.96,24.02-13.44,36.02q-.57,1.53-2.2,1.54c-4.23,0-8.47-.01-12.7,.02-1.57,0-1.87-.66-1.33-2.06,2.28-5.91,4.71-11.76,7.11-17.63C13.89,35.67,20.43,19.69,26.98,3.71c.43-1.06,.71-2.44,1.52-3.02,.77-.54,2.15-.21,3.26-.25,.71-.02,1.42,.05,2.12-.03,.91-.1,1.4,.25,1.74,1.11,1.66,4.13,3.37,8.24,5.06,12.36,7.1,17.31,14.2,34.63,21.29,51.94,.7,1.71,1.64,3.38,1.01,5.51Z"/><path class="cls-1" d="M287.36,29c-1,2.69-1.93,5.2-2.86,7.72-4.1,11.06-8.2,22.12-12.27,33.19-.36,.99-.86,1.41-1.95,1.39-4.27-.06-8.54-.02-12.8-.02-1.15,0-1.36-.12-1.24-1.26,.11-1.04,.32-2.1,.72-3.06,6.35-15.59,12.74-31.16,19.11-46.74,2.49-6.08,4.96-12.17,7.44-18.26,.62-1.53,.67-1.55,2.35-1.52,1.25,.02,2.51,.09,3.75-.02,1.11-.1,1.6,.35,1.99,1.33,1.93,4.86,3.91,9.69,5.89,14.53,6.97,16.96,13.94,33.92,20.93,50.87,.46,1.11,.61,2.2,.55,3.37-.03,.54-.16,.79-.79,.79-4.56-.03-9.11-.04-13.67-.01-.88,0-1.24-.44-1.52-1.17-2.76-7.35-5.54-14.7-8.32-22.04-2.26-5.96-4.51-11.93-6.77-17.89-.13-.34-.3-.67-.54-1.19Z"/><path class="cls-1" d="M82.67,44.38c0,8.53,0,17.07,0,25.6q0,1.3-1.33,1.3c-4.36,0-8.73,0-13.09,0-1.28,0-1.36-.08-1.36-1.37,0-17.04,0-34.07,0-51.11,0-1.53-.04-1.58-1.55-1.59-4.17,0-8.34,0-12.51,0-1.23,0-1.3-.08-1.3-1.32,0-4.43,0-8.85,0-13.28,0-1.24,.13-1.37,1.39-1.37,14.44,0,28.87,0,43.31,0,1.3,0,1.46,.16,1.47,1.41,.05,4.3,.1,8.6,.15,12.89,.02,1.61-.03,1.67-1.67,1.67-4.01,0-8.02,0-12.02,0-1.38,0-1.49,.1-1.49,1.46,0,8.57,0,17.13,0,25.7Z"/></svg>