<?xml version="1.0" encoding="UTF-8"?> <svg xmlns="http://www.w3.org/2000/svg" xmlns:cc="http://creativecommons.org/ns#" xmlns:dc="http://purl.org/dc/elements/1.1/" xmlns:rdf="http://www.w3.org/1999/02/22-rdf-syntax-ns#" width="116" height="58" fill="none" version="1.1" viewBox="0 0 116 58"><metadata></metadata><path d="m41.55 3.6-5.8499 33.18h4.07l5.32-30.19h7.34c1.0741-0.04046 2.1491 0.05361 3.2 0.28 0.7364 0.20614 1.3945 0.62747 1.89 1.21 0.7004 0.87282 1.0562 1.9724 1 3.09l-0.12 1.36c-0.1298 0.9157-0.4505 1.794-0.9415 2.5778-0.491 0.7839-1.1412 1.4558-1.9086 1.9722-1.5174 0.867-3.2557 1.2703-5 1.16h-1.7999c-0.07 0.44-0.42 2.39-0.5201 3h5.9001c2.53 0 4.26 0.48 5.27 1.46 0.4008 0.4223 0.7107 0.9225 0.9102 1.4695s0.2846 1.1292 0.2498 1.7105c-0.0041 0.5333-0.0543 1.0653-0.15 1.59-0.74 4.2-3.6801 6.33-8.73 6.33h-5.68c0 0.3-0.42 2.4-0.5201 3h4.5201c4.66 0 8-0.63 10-1.87 1.2835-0.7985 2.3778-1.8669 3.2067-3.131 0.829-1.2641 1.3726-2.6936 1.5933-4.189 0.1146-0.5735 0.1814-1.1555 0.2-1.74 0.0471-1.2648-0.3491-2.5063-1.12-3.51-0.66-0.82-1.6601-2.07-4.9401-3.22l-1.3299-0.47c0.39-0.27 0.7699-0.53 1.1699-0.79 1.0741-0.6987 1.9907-1.6135 2.6915-2.6862s1.1703-2.2796 1.3785-3.5438c0.0991-0.5445 0.1493-1.0967 0.1501-1.65 0.0242-1.4458-0.4449-2.8566-1.3301-4-0.6593-0.90289-1.5976-1.5636-2.6699-1.88-1.8849-0.40769-3.8126-0.58233-5.7401-0.52h-11.71z" fill="#fff"></path><path d="m71.13 3.6001-3.56 20.2c-0.3166 1.6486-0.4906 3.3215-0.52 5v1.23c0.1132 1.3294 0.61 2.5974 1.43 3.65 0.8678 1.1221 2.0521 1.9581 3.4 2.4 1.9703 0.5543 4.0145 0.8005 6.06 0.73h7.94c0.07-0.44 0.42-2.39 0.53-3h-6.6c-3.61 0-6.19-0.84-7.65-2.61-0.6151-0.9514-0.9256-2.0677-0.89-3.2v-0.38c0.0366-1.5954 0.2106-3.1846 0.52-4.75l3.4-19.3h-4.06" fill="#231F20"></path><path d="m101.5 3.57c-3.36 0-7.86 0.34-9.61 1-1.7729 0.64975-3.3379 1.7656-4.53 3.23-1.3326 1.5773-2.2168 3.4838-2.56 5.52-0.1149 0.6269-0.1751 1.2627-0.18 1.9-0.0521 0.8387 0.124 1.6758 0.5096 2.4224 0.3857 0.7466 0.9664 1.3747 1.6804 1.8176 1.29 0.93 6.11 1.49 10 1.49 0 0 7.66 0.49 8.63 0.83 1.032 0.3221 1.927 0.9806 2.542 1.8705 0.614 0.8899 0.913 1.96 0.848 3.0395l-0.12 1.36c-0.113 1.0341-0.502 2.0189-1.124 2.8524-0.623 0.8335-1.457 1.4852-2.416 1.8876-1.96 0.7615-4.059 1.1022-6.16 1h-11.1c-0.06 0.37-0.44 2.52-0.53 3h10c2.4 0 6.55-0.08 7.84-0.27 1.157-0.1658 2.282-0.5028 3.34-1 1.567-0.735 2.922-1.8536 3.941-3.252 1.019-1.3985 1.669-3.0316 1.889-4.748 0.133-0.7224 0.2-1.4554 0.2-2.19 5e-3 -0.7847-0.086-1.5671-0.27-2.33-0.266-1.0755-0.881-2.0322-1.75-2.72-0.838-0.6604-1.828-1.1005-2.88-1.28-3.27-0.69-10.79-0.7-10.79-0.7-3 0-5.1-0.44-6.35-1.35-0.619-0.4446-1.1233-1.0302-1.4711-1.7084s-0.5291-1.4294-0.5289-2.1916l0.08-0.92c0.38-2.12 1.62-3.26 3.67-4.45 0.815-0.45285 1.7009-0.76394 2.62-0.92 1.2447-0.18296 2.5022-0.26323 3.76-0.24h11.48c0.08-0.44 0.45-2.78 0.49-3l-11.15 0.05z" fill="#231F20"></path><path d="m71.13 3.6001-3.56 20.2c-0.3166 1.6486-0.4906 3.3215-0.52 5v1.23c0.1132 1.3294 0.61 2.5974 1.43 3.65 0.8678 1.1221 2.0521 1.9581 3.4 2.4 1.9703 0.5543 4.0145 0.8005 6.06 0.73h7.94c0.07-0.44 0.42-2.39 0.53-3h-6.6c-3.61 0-6.19-0.84-7.65-2.61-0.6151-0.9514-0.9256-2.0677-0.89-3.2v-0.38c0.0366-1.5954 0.2106-3.1846 0.52-4.75l3.4-19.3h-4.06" fill="#fff"></path><path d="m101.5 3.57c-3.36 0-7.86 0.34-9.61 1-1.7729 0.64975-3.3379 1.7656-4.53 3.23-1.3326 1.5773-2.2168 3.4838-2.56 5.52-0.1149 0.6269-0.1751 1.2627-0.18 1.9-0.0521 0.8387 0.124 1.6758 0.5096 2.4224 0.3857 0.7466 0.9664 1.3747 1.6804 1.8176 1.29 0.93 6.11 1.49 10 1.49 0 0 7.66 0.49 8.63 0.83 1.032 0.3221 1.927 0.9806 2.542 1.8705 0.614 0.8899 0.913 1.96 0.848 3.0395l-0.12 1.36c-0.113 1.0341-0.502 2.0189-1.124 2.8524-0.623 0.8335-1.457 1.4852-2.416 1.8876-1.96 0.7615-4.059 1.1022-6.16 1h-11.1c-0.06 0.37-0.44 2.52-0.53 3h10c2.4 0 6.55-0.08 7.84-0.27 1.157-0.1658 2.282-0.5028 3.34-1 1.567-0.735 2.922-1.8536 3.941-3.252 1.019-1.3985 1.669-3.0316 1.889-4.748 0.133-0.7224 0.2-1.4554 0.2-2.19 5e-3 -0.7847-0.086-1.5671-0.27-2.33-0.266-1.0755-0.881-2.0322-1.75-2.72-0.838-0.6604-1.828-1.1005-2.88-1.28-3.27-0.69-10.79-0.7-10.79-0.7-3 0-5.1-0.44-6.35-1.35-0.619-0.4446-1.1233-1.0302-1.4711-1.7084s-0.5291-1.4294-0.5289-2.1916l0.08-0.92c0.38-2.12 1.62-3.26 3.67-4.45 0.815-0.45285 1.7009-0.76394 2.62-0.92 1.2447-0.18296 2.5022-0.26323 3.76-0.24h11.48c0.08-0.44 0.45-2.78 0.49-3l-11.15 0.05z" fill="#fff"></path><g fill="#939598"><path d="m22.28 35.62c-1.4169 2e-3 -2.8026-0.4165-3.9816-1.2025s-2.0983-1.9042-2.6414-3.2129c-0.5432-1.3087-0.6858-2.7492-0.4099-4.139 0.276-1.3898 0.9581-2.6666 1.96-3.6685 1.002-1.0019 2.2787-1.6841 3.6685-1.96 1.3899-0.276 2.8303-0.1333 4.1391 0.4098 1.3087 0.5432 2.4268 1.4625 3.2128 2.6414 0.786 1.179 1.2045 2.5647 1.2025 3.9817-0.0026 1.8955-0.7568 3.7126-2.0971 5.0529s-3.1574 2.0944-5.0529 2.0971zm0.63-16.14c-1.78 0-3.5201 0.5278-5.0001 1.5168-1.4801 0.9889-2.6336 2.3945-3.3148 4.039-0.6812 1.6446-0.8594 3.4542-0.5122 5.2 0.3473 1.7458 1.2045 3.3495 2.4632 4.6081 1.2586 1.2587 2.8623 2.1159 4.6081 2.4631 1.7458 0.3473 3.5554 0.1691 5.2-0.5121 1.6445-0.6812 3.0501-1.8347 4.039-3.3148 0.989-1.48 1.5168-3.2201 1.5168-5.0001 0-2.387-0.9482-4.6762-2.636-6.364-1.6879-1.6878-3.977-2.636-6.364-2.636z"></path><path d="m5.9999 36.09c-0.62085-1.8644-1.0039-3.7997-1.14-5.76-0.66 0.11-1.23 0.21-1.67 0.31 0.15026 2.1681 0.5874 4.3068 1.3 6.36 0.46965 1.385 1.0655 2.7239 1.78 4 0.34994-0.5467 0.75907-1.0531 1.22-1.51 0.59-0.62 1.35-1.33 2.25-2.1-0.48731-0.8648-0.89563-1.7718-1.22-2.71-0.95 0.49-1.8 1-2.51 1.37"></path><path d="m28.4 11.49c0.9533-1.92 1.99-3.8366 3.11-5.75 1.8582 0.27522 3.6753 0.77904 5.41 1.5 0.4647-0.35631 0.9599-0.67087 1.48-0.94-1.9426-0.89247-3.9932-1.5278-6.1-1.89-1.4202-0.24415-2.859-0.3646-4.3-0.36-0.31 0.46-0.6 1-0.89 1.45-1.0115 1.8141-1.8422 3.7233-2.48 5.7h0.54c1.0765-4e-4 2.1509 0.0967 3.21 0.29"></path><path d="m22.81 51.34c-1.9833-0.4525-3.897-1.1689-5.69-2.13 0.0345 0.7471 0.1113 1.4916 0.23 2.23 3.3282 1.5808 6.9655 2.4039 10.65 2.41-0.32-0.64-0.62-1.28-0.9-1.94-0.7624-1.7563-1.43-3.5522-2-5.38-1.2234-0.0068-2.4429-0.1375-3.64-0.39 0.3057 1.7676 0.7573 3.5069 1.35 5.2z"></path><path d="m9.8999 14.2c1.31-1.6269 2.8299-3.0728 4.52-4.3-0.15-0.51-0.3-1-0.43-1.51-1.7706 1.2115-3.3772 2.6467-4.78 4.27-0.94193 1.0827-1.7853 2.2473-2.52 3.48 0.29139 0.4714 0.6483 0.899 1.06 1.27 0.59 0.6 1.41 1.34 2.4 2.18 0.5063-0.8127 1.0747-1.585 1.7-2.31-0.7146-0.9843-1.366-2.013-1.95-3.08z"></path><path d="m45.49 44c-1.4138 1.6061-3.0425 3.0093-4.84 4.17 0.63 0.35 1.26 0.67 1.91 1 2.9893-2.1557 5.4651-4.9456 7.25-8.17-0.61 0-1.26-0.12-1.94-0.23-2.6736-0.5311-5.282-1.3491-7.78-2.44-0.5025 0.7817-1.0642 1.5239-1.68 2.22 2.2576 1.3493 4.6262 2.5035 7.08 3.45z"></path><path d="m39 5.6799c-4.6152-2.1486-9.7642-2.8792-14.795-2.0994-5.0307 0.7798-9.7168 3.035-13.465 6.4799-3.7481 3.4449-6.3896 7.9247-7.59 12.872-1.2004 4.9473-0.90562 10.14 0.84695 14.919s4.8841 8.9316 8.9981 11.93c4.1139 2.9986 9.0252 4.709 14.112 4.9144 5.0867 0.2054 10.12-1.1033 14.462-3.7604 4.3424-2.657 7.7986-6.543 9.9309-11.166h2.42c-2.1225 4.9442-5.6567 9.1521-10.16 12.097-4.5032 2.9447-9.7751 4.4953-15.156 4.4574-5.3803-0.0379-10.63-1.6624-15.091-4.6702-4.4612-3.0078-7.9358-7.2651-9.9885-12.239-2.0527-4.9735-2.5923-10.442-1.5511-15.721 1.0412-5.2788 3.6168-10.133 7.4042-13.955 3.7874-3.8216 8.6184-6.4408 13.888-7.5294 5.2692-1.0886 10.742-0.59822 15.734 1.4097v2.06z"></path></g><path d="m62 41.58c0 0.3604-0.107 0.7127-0.3074 1.0122-0.2005 0.2995-0.4853 0.5328-0.8184 0.6702-0.3332 0.1375-0.6996 0.1729-1.0529 0.1019-0.3534-0.071-0.6776-0.2454-0.9318-0.5009-0.2541-0.2555-0.4266-0.5808-0.4957-0.9345s-0.0317-0.7199 0.1076-1.0523 0.3741-0.6159 0.6748-0.8147c0.3006-0.1988 0.6534-0.3038 1.0138-0.3019 0.2385 0 0.4747 0.0472 0.695 0.1388 0.2202 0.0916 0.4202 0.2258 0.5884 0.3949s0.3013 0.3699 0.3917 0.5906c0.0904 0.2208 0.1362 0.4572 0.1349 0.6957z" fill="#42953E"></path><path d="m60.15 43.53c-0.3956 0-0.7822-0.1173-1.1111-0.337-0.3289-0.2198-0.5853-0.5321-0.7367-0.8976-0.1513-0.3655-0.1909-0.7676-0.1138-1.1555 0.0772-0.388 0.2677-0.7444 0.5474-1.0241s0.6361-0.4702 1.024-0.5473c0.388-0.0772 0.7901-0.0376 1.1556 0.1138 0.3654 0.1513 0.6778 0.4077 0.8975 0.7366 0.2198 0.3289 0.3371 0.7156 0.3371 1.1111 0 0.5305-0.2107 1.0392-0.5858 1.4142-0.3751 0.3751-0.8838 0.5858-1.4142 0.5858zm0-3.63c-0.3327-0.0019-0.6585 0.0949-0.9361 0.2783s-0.4944 0.4451-0.6231 0.7519-0.1634 0.6449-0.0997 0.9714c0.0637 0.3266 0.2229 0.6268 0.4574 0.8628 0.2346 0.2359 0.5339 0.3969 0.8601 0.4626 0.3261 0.0656 0.6644 0.0329 0.972-0.0939 0.3075-0.1269 0.5705-0.3422 0.7556-0.6187 0.185-0.2765 0.2838-0.6017 0.2838-0.9344 0-0.4438-0.1756-0.8696-0.4885-1.1844s-0.7377-0.4929-1.1815-0.4956z" fill="#231F20"></path><path d="m73 41.58c0 0.36-0.1067 0.7119-0.3067 1.0111-0.2 0.2993-0.4843 0.5326-0.8168 0.6704-0.3326 0.1377-0.6985 0.1738-1.0516 0.1035-0.353-0.0702-0.6773-0.2435-0.9318-0.4981-0.2546-0.2545-0.4279-0.5788-0.4981-0.9318-0.0702-0.3531-0.0342-0.719 0.1035-1.0516 0.1378-0.3325 0.3711-0.6168 0.6704-0.8168 0.2993-0.1999 0.6511-0.3067 1.0111-0.3067 0.4827 0 0.9456 0.1918 1.2869 0.5331 0.3414 0.3413 0.5331 0.8042 0.5331 1.2869z" fill="#fff"></path><path d="m71.2 40.07c-0.3988 0.0027-0.7803 0.1629-1.0613 0.4458s-0.4387 0.6655-0.4387 1.0642c-0.0015 0.1972 0.0367 0.3927 0.1123 0.5748s0.187 0.3471 0.3277 0.4852c0.1753 0.1723 0.3902 0.2988 0.6259 0.3685 0.2356 0.0696 0.4848 0.0803 0.7256 0.0312 0.2407-0.0492 0.4657-0.1568 0.6552-0.3134 0.1894-0.1565 0.3375-0.3572 0.4312-0.5843 0.0937-0.2272 0.1301-0.4739 0.1061-0.7185s-0.1077-0.4795-0.2438-0.6841-0.3203-0.3727-0.5366-0.4894c-0.2162-0.1167-0.4579-0.1785-0.7036-0.18zm0-0.31c0.3604-0.0019 0.7132 0.1031 1.0138 0.3019s0.5355 0.4823 0.6748 0.8147 0.1767 0.6986 0.1076 1.0523-0.2416 0.679-0.4957 0.9345c-0.2542 0.2555-0.5784 0.4299-0.9318 0.5009-0.3533 0.071-0.7197 0.0356-1.0529-0.1019-0.3331-0.1374-0.6179-0.3707-0.8184-0.6702-0.2004-0.2995-0.3074-0.6518-0.3074-1.0122 0.0026-0.4801 0.1938-0.94 0.5324-1.2805s0.7974-0.5342 1.2776-0.5395z" fill="#231F20"></path><path d="m84.07 41.58c0 0.3604-0.107 0.7127-0.3074 1.0122s-0.4853 0.5328-0.8184 0.6702c-0.3332 0.1375-0.6996 0.1729-1.0529 0.1019s-0.6776-0.2454-0.9317-0.5009c-0.2542-0.2555-0.4267-0.5808-0.4958-0.9345s-0.0316-0.7199 0.1077-1.0523c0.1392-0.3324 0.3741-0.6159 0.6747-0.8147s0.6535-0.3038 1.0138-0.3019c0.2386 0 0.4747 0.0472 0.695 0.1388s0.4202 0.2258 0.5884 0.3949 0.3014 0.3699 0.3917 0.5906c0.0904 0.2208 0.1362 0.4572 0.1349 0.6957z" fill="#B10028"></path><path d="m82.26 43.53c-0.3976 0.0099-0.7891-0.0989-1.1245-0.3125s-0.5995-0.5224-0.7586-0.8869c-0.159-0.3644-0.2058-0.768-0.1344-1.1592s0.2579-0.7523 0.5355-1.037 0.6338-0.4802 1.023-0.5615c0.3893-0.0813 0.794-0.0448 1.1623 0.105 0.3684 0.1498 0.6838 0.406 0.9058 0.7359 0.2221 0.3299 0.3407 0.7185 0.3409 1.1162 1e-4 0.5219-0.2037 1.0232-0.568 1.3968-0.3644 0.3737-0.8603 0.5901-1.382 0.6032zm0-3.63c-0.2309-0.0179-0.4629 0.0122-0.6816 0.0883s-0.4193 0.1965-0.5892 0.3538-0.3055 0.348-0.3982 0.5602c-0.0927 0.2121-0.1406 0.4412-0.1406 0.6727s0.0479 0.4606 0.1406 0.6727c0.0927 0.2122 0.2283 0.4029 0.3982 0.5602s0.3705 0.2777 0.5892 0.3538 0.4507 0.1061 0.6816 0.0883c0.4218-0.0326 0.8159-0.2233 1.1033-0.5338 0.2875-0.3105 0.4471-0.7181 0.4471-1.1412s-0.1596-0.8307-0.4471-1.1412c-0.2874-0.3106-0.6815-0.5012-1.1033-0.5338z" fill="#231F20"></path><path d="m62 41.58c0 0.3604-0.107 0.7127-0.3074 1.0122-0.2005 0.2995-0.4853 0.5328-0.8184 0.6702-0.3332 0.1375-0.6996 0.1729-1.0529 0.1019-0.3534-0.071-0.6776-0.2454-0.9318-0.5009-0.2541-0.2555-0.4266-0.5808-0.4957-0.9345s-0.0317-0.7199 0.1076-1.0523 0.3741-0.6159 0.6748-0.8147c0.3006-0.1988 0.6534-0.3038 1.0138-0.3019 0.2385 0 0.4747 0.0472 0.695 0.1388 0.2202 0.0916 0.4202 0.2258 0.5884 0.3949s0.3013 0.3699 0.3917 0.5906c0.0904 0.2208 0.1362 0.4572 0.1349 0.6957z" fill="#42953E"></path><path d="m60.15 43.53c-0.3956 0-0.7822-0.1173-1.1111-0.337-0.3289-0.2198-0.5853-0.5321-0.7367-0.8976-0.1513-0.3655-0.1909-0.7676-0.1138-1.1555 0.0772-0.388 0.2677-0.7444 0.5474-1.0241s0.6361-0.4702 1.024-0.5473c0.388-0.0772 0.7901-0.0376 1.1556 0.1138 0.3654 0.1513 0.6778 0.4077 0.8975 0.7366 0.2198 0.3289 0.3371 0.7156 0.3371 1.1111 0 0.5305-0.2107 1.0392-0.5858 1.4142-0.3751 0.3751-0.8838 0.5858-1.4142 0.5858zm0-3.63c-0.3327-0.0019-0.6585 0.0949-0.9361 0.2783s-0.4944 0.4451-0.6231 0.7519-0.1634 0.6449-0.0997 0.9714c0.0637 0.3266 0.2229 0.6268 0.4574 0.8628 0.2346 0.2359 0.5339 0.3969 0.8601 0.4626 0.3261 0.0656 0.6644 0.0329 0.972-0.0939 0.3075-0.1269 0.5705-0.3422 0.7556-0.6187 0.185-0.2765 0.2838-0.6017 0.2838-0.9344 0-0.4438-0.1756-0.8696-0.4885-1.1844s-0.7377-0.4929-1.1815-0.4956z" fill="#231F20"></path><path d="m73 41.58c0 0.36-0.1067 0.7119-0.3067 1.0111-0.2 0.2993-0.4843 0.5326-0.8168 0.6704-0.3326 0.1377-0.6985 0.1738-1.0516 0.1035-0.353-0.0702-0.6773-0.2435-0.9318-0.4981-0.2546-0.2545-0.4279-0.5788-0.4981-0.9318-0.0702-0.3531-0.0342-0.719 0.1035-1.0516 0.1378-0.3325 0.3711-0.6168 0.6704-0.8168 0.2993-0.1999 0.6511-0.3067 1.0111-0.3067 0.4827 0 0.9456 0.1918 1.2869 0.5331 0.3414 0.3413 0.5331 0.8042 0.5331 1.2869z" fill="#fff"></path><path d="m71.2 40.07c-0.3988 0.0027-0.7803 0.1629-1.0613 0.4458s-0.4387 0.6655-0.4387 1.0642c-0.0015 0.1972 0.0367 0.3927 0.1123 0.5748s0.187 0.3471 0.3277 0.4852c0.1753 0.1723 0.3902 0.2988 0.6259 0.3685 0.2356 0.0696 0.4848 0.0803 0.7256 0.0312 0.2407-0.0492 0.4657-0.1568 0.6552-0.3134 0.1894-0.1565 0.3375-0.3572 0.4312-0.5843 0.0937-0.2272 0.1301-0.4739 0.1061-0.7185s-0.1077-0.4795-0.2438-0.6841-0.3203-0.3727-0.5366-0.4894c-0.2162-0.1167-0.4579-0.1785-0.7036-0.18zm0-0.31c0.3604-0.0019 0.7132 0.1031 1.0138 0.3019s0.5355 0.4823 0.6748 0.8147 0.1767 0.6986 0.1076 1.0523-0.2416 0.679-0.4957 0.9345c-0.2542 0.2555-0.5784 0.4299-0.9318 0.5009-0.3533 0.071-0.7197 0.0356-1.0529-0.1019-0.3331-0.1374-0.6179-0.3707-0.8184-0.6702-0.2004-0.2995-0.3074-0.6518-0.3074-1.0122 0.0026-0.4801 0.1938-0.94 0.5324-1.2805s0.7974-0.5342 1.2776-0.5395z" fill="#231F20"></path><path d="m84.07 41.58c0 0.3604-0.107 0.7127-0.3074 1.0122s-0.4853 0.5328-0.8184 0.6702c-0.3332 0.1375-0.6996 0.1729-1.0529 0.1019s-0.6776-0.2454-0.9317-0.5009c-0.2542-0.2555-0.4267-0.5808-0.4958-0.9345s-0.0316-0.7199 0.1077-1.0523c0.1392-0.3324 0.3741-0.6159 0.6747-0.8147s0.6535-0.3038 1.0138-0.3019c0.2386 0 0.4747 0.0472 0.695 0.1388s0.4202 0.2258 0.5884 0.3949 0.3014 0.3699 0.3917 0.5906c0.0904 0.2208 0.1362 0.4572 0.1349 0.6957z" fill="#B10028"></path><path d="m82.26 43.53c-0.3976 0.0099-0.7891-0.0989-1.1245-0.3125s-0.5995-0.5224-0.7586-0.8869c-0.159-0.3644-0.2058-0.768-0.1344-1.1592s0.2579-0.7523 0.5355-1.037 0.6338-0.4802 1.023-0.5615c0.3893-0.0813 0.794-0.0448 1.1623 0.105 0.3684 0.1498 0.6838 0.406 0.9058 0.7359 0.2221 0.3299 0.3407 0.7185 0.3409 1.1162 1e-4 0.5219-0.2037 1.0232-0.568 1.3968-0.3644 0.3737-0.8603 0.5901-1.382 0.6032zm0-3.63c-0.2309-0.0179-0.4629 0.0122-0.6816 0.0883s-0.4193 0.1965-0.5892 0.3538-0.3055 0.348-0.3982 0.5602c-0.0927 0.2121-0.1406 0.4412-0.1406 0.6727s0.0479 0.4606 0.1406 0.6727c0.0927 0.2122 0.2283 0.4029 0.3982 0.5602s0.3705 0.2777 0.5892 0.3538 0.4507 0.1061 0.6816 0.0883c0.4218-0.0326 0.8159-0.2233 1.1033-0.5338 0.2875-0.3105 0.4471-0.7181 0.4471-1.1412s-0.1596-0.8307-0.4471-1.1412c-0.2874-0.3106-0.6815-0.5012-1.1033-0.5338z" fill="#231F20"></path></svg> 