<?xml version="1.0" encoding="UTF-8" standalone="no"?>
<svg
   id="Camada_1"
   viewBox="0 0 380 180"
   version="1.1"
   sodipodi:docname="ecoboots.svg"
   width="380"
   height="180"
   inkscape:version="1.1.2 (1:1.1+202202050950+0a00cf5339)"
   xmlns:inkscape="http://www.inkscape.org/namespaces/inkscape"
   xmlns:sodipodi="http://sodipodi.sourceforge.net/DTD/sodipodi-0.dtd"
   xmlns="http://www.w3.org/2000/svg"
   xmlns:svg="http://www.w3.org/2000/svg">
  <sodipodi:namedview
     id="namedview29"
     pagecolor="#ffffff"
     bordercolor="#666666"
     borderopacity="1.0"
     inkscape:pageshadow="2"
     inkscape:pageopacity="0.0"
     inkscape:pagecheckerboard="0"
     showgrid="false"
     height="180px"
     inkscape:zoom="0.90063074"
     inkscape:cx="189.31177"
     inkscape:cy="189.31177"
     inkscape:window-width="1366"
     inkscape:window-height="656"
     inkscape:window-x="0"
     inkscape:window-y="27"
     inkscape:window-maximized="1"
     inkscape:current-layer="Camada_1" />
  <defs
     id="defs4">
    <style
       id="style2">.cls-1{fill:#2e3192;}.cls-2{fill:#c6d105;}.cls-3{fill:#f7f8fa;}</style>
  </defs>
  <path
     class="cls-3"
     d="m 379.64,380 c 0,-1.34 -0.02,-2.67 -0.02,-4.01 0,-123.92 0,-247.83 0,-371.75 V 0.39 c -0.75,0 -1.39,0 -2.04,0 -125.62,0 -251.24,0 -376.85,0 C 0.49,0.39 0.25,0.37 0,0.37 0.06,0.25 0.12,0.02 0.18,0.02 0.67,-0.01 1.15,0 1.64,0 H 380 v 2.83 c 0,125.18 0,250.36 -0.02,375.53 0,0.55 -0.23,1.09 -0.35,1.64 z"
     id="path6" />
  <g
     id="g14"
     transform="translate(1.5520536,-104.30326)">
    <path
       class="cls-2"
       d="m 129.54,213.34 c -11.98,0.69 -20.74,-8.57 -22.86,-17.46 -1.76,-7.39 -0.42,-14.46 4.64,-20.52 2.97,-3.55 6.72,-5.91 11.03,-7.45 0.84,-0.3 1.77,-0.4 2.67,-0.44 1.82,-0.07 3.65,0.11 5.46,-0.07 10.55,-1.01 19.13,8.63 21.8,16.52 3.44,10.19 -3.52,24.59 -14.6,28.01 -2.61,0.8 -5.42,0.95 -8.14,1.4 z m 12.37,-23.13 c 0.04,-7.09 -5.45,-12.88 -12.28,-12.94 -6.92,-0.06 -12.57,5.69 -12.62,12.84 -0.05,7.01 5.54,12.87 12.34,12.94 6.98,0.07 12.51,-5.59 12.56,-12.84 z"
       id="path8" />
    <path
       class="cls-2"
       d="m 80.85,167.43 c 10.87,0.01 18.43,4.91 22.14,13.87 0.27,0.66 0.47,1.39 0.53,2.09 0.09,1.09 -0.47,1.71 -1.62,1.71 -2.73,0 -5.47,0.12 -8.19,-0.07 -0.84,-0.06 -1.92,-0.83 -2.35,-1.58 -2.72,-4.79 -7.66,-7.06 -13.13,-5.83 -4.78,1.07 -8.21,5.27 -8.53,10.53 -0.2,3.36 -0.16,6.65 1.85,9.63 4.87,7.23 15.77,6.64 19.71,-1.16 0.63,-1.25 1.49,-1.63 2.74,-1.63 2.61,0 5.21,-0.02 7.82,-0.01 1.46,0 2.2,0.92 1.56,2.49 -0.91,2.22 -1.97,4.45 -3.37,6.39 -2.99,4.14 -6.93,7.2 -11.96,8.43 -15.33,3.75 -31.48,-6.32 -30.32,-23.69 0.5,-7.44 3.61,-13.3 9.76,-17.38 4.22,-2.8 8.88,-4.5 13.36,-3.78 z"
       id="path10" />
    <path
       class="cls-2"
       d="m 44.22,167.44 c 3.52,0 7.04,0 10.55,0 2.02,0 2.25,0.26 2.23,2.33 -0.02,1.88 -0.01,3.76 0.03,5.64 0.03,1.6 -0.73,2.34 -2.32,2.32 -3.21,-0.03 -6.43,0.02 -9.64,-0.08 -1.67,-0.05 -2.42,0.42 -2.39,2.25 0.07,4.47 0,4.47 4.49,4.32 2.79,-0.09 3.21,0.29 3.21,3.04 0,1.82 -0.04,3.64 -0.07,5.46 -0.03,1.42 -0.77,2.09 -2.19,2.05 -1.21,-0.03 -2.43,-0.02 -3.64,-0.05 -1.23,-0.03 -1.76,0.56 -1.76,1.77 0.01,1.33 0.03,2.67 -0.06,4 -0.1,1.58 0.63,2.22 2.14,2.2 3.09,-0.04 6.19,-0.03 9.28,-0.09 2.38,-0.04 2.87,0.39 2.88,2.83 0,1.88 -0.03,3.76 0.02,5.63 0.05,1.73 -1.14,1.77 -2.33,1.77 -6.25,0.02 -12.5,0.01 -18.75,0.02 -0.97,0 -1.94,0.03 -2.91,-0.01 -1.03,-0.05 -1.45,-0.6 -1.44,-1.67 0.09,-9.64 0.17,-19.28 0.21,-28.92 0.02,-4.37 -0.02,-8.73 -0.13,-13.1 -0.03,-1.43 0.6,-1.76 1.86,-1.74 3.58,0.05 7.16,0.02 10.74,0.02 v 0 z"
       id="path12" />
  </g>
  <g
     id="g26"
     transform="translate(1.5520536,-104.30326)">
    <path
       class="cls-1"
       d="m 169.56,212.93 c -3.46,0 -6.92,0.01 -10.38,0 -2.53,-0.01 -2.77,-0.4 -2.57,-2.84 0.15,-1.81 0,-3.63 0,-5.45 -0.02,-1.97 0.34,-2.36 2.3,-2.35 5.64,0.02 11.29,0.09 16.93,0.04 1.04,0 2.2,-0.29 3.08,-0.82 1.5,-0.91 2.29,-2.34 1.78,-4.19 -0.44,-1.59 -2.01,-2.8 -3.82,-2.86 -1.82,-0.06 -3.64,-0.01 -5.46,-0.01 -4.19,0 -8.37,-0.03 -12.56,0 -1.63,0.02 -2.34,-0.69 -2.3,-2.3 0.04,-1.7 0,-3.4 0,-5.09 0,-1.93 0.4,-2.34 2.36,-2.32 4.61,0.03 9.22,0.09 13.83,0.08 0.89,0 1.84,-0.1 2.66,-0.41 1.85,-0.71 2.9,-2.42 2.59,-3.92 -0.35,-1.71 -1.88,-3 -3.82,-3.08 -1.76,-0.07 -3.52,0 -5.28,0.01 -3.28,0 -6.55,0.02 -9.83,0.01 -2.09,0 -2.54,-0.52 -2.5,-2.62 0.03,-1.7 0.13,-3.4 0.03,-5.09 -0.12,-2.06 0.03,-2.31 2.12,-2.31 6.43,0 12.87,-0.07 19.3,0.08 1.62,0.04 3.36,0.54 4.8,1.3 7.35,3.88 7.68,14.02 2.49,18.01 -1.27,0.98 -0.79,1.89 0.28,2.61 2.38,1.6 3.57,3.94 4.72,6.49 2.65,5.86 -1.21,14.29 -8.97,16.8 -1.27,0.41 -2.77,0.18 -4.16,0.2 -2.55,0.02 -5.1,0 -7.65,0 v 0 z"
       id="path16" />
    <path
       class="cls-1"
       d="m 332.32,167.53 c 5.78,-0.78 10.17,1.42 13.09,6.33 0.88,1.47 1.23,3.27 1.67,4.96 0.32,1.23 -0.37,2.06 -1.62,2.1 -2.49,0.08 -4.98,0.07 -7.46,0.04 -1.28,-0.02 -1.66,-0.88 -1.86,-2.04 -0.59,-3.38 -3.56,-4.65 -6.41,-2.82 -2.24,1.44 -2.65,4.34 -0.56,6.01 1.78,1.42 3.91,2.4 5.91,3.53 2.69,1.52 5.58,2.74 8.07,4.54 6.72,4.84 6.26,15.23 -0.62,19.92 -5.83,3.97 -15.11,4.02 -21.22,-0.64 -3.33,-2.54 -4.94,-6.06 -5.23,-10.21 -0.09,-1.31 0.52,-1.91 1.81,-1.93 2.37,-0.02 4.73,-0.05 7.1,-0.11 1.66,-0.04 2.37,0.87 2.7,2.37 0.45,2.05 1.78,3.28 3.85,3.62 1.66,0.27 3.61,-0.74 4.39,-2.6 0.36,-0.85 0.39,-2.32 -0.12,-2.95 -0.98,-1.22 -2.34,-2.27 -3.75,-2.98 -3.02,-1.53 -6.33,-2.54 -9.25,-4.23 -8.46,-4.9 -8.28,-15.96 0.14,-20.93 2.96,-1.75 6.05,-2.42 9.38,-1.97 z"
       id="path18" />
    <path
       class="cls-1"
       d="m 306.7,195.08 c 0,5.28 -0.03,10.56 0.02,15.84 0.01,1.34 -0.54,1.92 -1.8,1.92 -2.91,0.01 -5.83,0.02 -8.74,0 -1.24,0 -1.61,-0.63 -1.6,-1.86 0.07,-10.56 0.08,-21.12 0.07,-31.68 0,-2.05 -0.51,-2.4 -2.53,-2.3 -1.39,0.07 -2.79,0.09 -4.18,0.07 -1.45,-0.02 -2.26,-0.79 -2.3,-2.26 -0.06,-2 -0.17,-4.01 -0.06,-6 0.03,-0.47 0.78,-1.17 1.31,-1.29 0.92,-0.22 1.93,-0.07 2.9,-0.07 7.89,-0.02 15.78,-0.03 23.67,-0.05 2.23,0 2.53,0.29 2.4,2.51 -0.09,1.57 -0.26,3.14 -0.3,4.72 -0.04,1.8 -1.01,2.49 -2.67,2.47 -1.33,-0.01 -2.68,0.02 -4,-0.09 -1.82,-0.15 -2.29,0.73 -2.26,2.39 0.07,5.22 0.02,10.44 0.02,15.66 h 0.06 z"
       id="path20" />
    <path
       class="cls-1"
       d="m 237.79,183.51 c -3.29,-10.44 -11.63,-16.07 -22.65,-16.08 q -6.63,0 -11.47,2.6 c -13.05,6.96 -16.62,25 -5.04,36.53 4.17,4.16 9.22,6.88 15.47,6.38 2.59,-0.21 5.28,0.11 7.75,-0.51 4.64,-1.17 8.46,-3.91 11.52,-7.6 5.24,-6.31 6.86,-13.6 4.42,-21.33 z m -22.87,19.53 c -6.66,-0.26 -12.17,-6.01 -12.09,-13.01 0.08,-7.05 5.58,-12.73 12.34,-12.72 6.77,0 12.61,6.02 12.56,12.97 0.22,5.96 -5.82,13.04 -12.81,12.76 z"
       id="path22" />
    <path
       class="cls-1"
       d="m 284.69,177.52 c -4.66,-6.95 -11.12,-10.62 -19.68,-10.18 -2.12,0.1 -4.35,-0.19 -6.33,0.38 -5.46,1.56 -9.97,4.69 -13.16,9.47 -7.89,11.8 -3.78,27.2 8.83,33.72 3.44,1.78 6.99,2.02 10.73,2.07 3.9,0.06 7.45,-0.63 11.02,-2.36 10.11,-4.91 17.24,-20.19 8.59,-33.1 z m -19.63,25.5 c -6.84,0.02 -12.57,-5.89 -12.54,-12.95 0.03,-6.97 5.68,-12.74 12.52,-12.79 6.83,-0.05 12.25,5.62 12.28,12.86 0.02,7.24 -5.33,12.86 -12.26,12.88 z"
       id="path24" />
  </g>
</svg>
